<svg viewBox="0 0 330 200" xmlns="http://www.w3.org/2000/svg"><g><g><g><g><g><line x1="51.5625" y1="177.2476864299465" x2="46.5625" y2="177.2476864299465" style="visibility: inherit;" fill="rgb(0, 0, 0)" stroke="rgb(204, 204, 204)" stroke-width="1px"></line><line x1="51.5625" y1="170.54336742195247" x2="46.5625" y2="170.54336742195247" style="visibility: inherit;" fill="rgb(0, 0, 0)" stroke="rgb(204, 204, 204)" stroke-width="1px"></line><line x1="51.5625" y1="165.06553993564708" x2="46.5625" y2="165.06553993564708" style="visibility: inherit;" fill="rgb(0, 0, 0)" stroke="rgb(204, 204, 204)" stroke-width="1px"></line><line x1="51.5625" y1="160.43410278779132" x2="46.5625" y2="160.43410278779132" style="visibility: inherit;" fill="rgb(0, 0, 0)" stroke="rgb(204, 204, 204)" stroke-width="1px"></line><line x1="51.5625" y1="156.42216944504412" x2="46.5625" y2="156.42216944504412" style="visibility: inherit;" fill="rgb(0, 0, 0)" stroke="rgb(204, 204, 204)" stroke-width="1px"></line><line x1="51.5625" y1="152.88339344134766" x2="46.5625" y2="152.88339344134766" style="visibility: inherit;" fill="rgb(0, 0, 0)" stroke="rgb(204, 204, 204)" stroke-width="1px"></line><line x1="51.5625" y1="149.7178504370501" x2="46.5625" y2="149.7178504370501" style="visibility: inherit;" fill="rgb(0, 0, 0)" stroke="rgb(204, 204, 204)" stroke-width="1px"></line><line x1="51.5625" y1="128.8923334521477" x2="46.5625" y2="128.8923334521477" style="visibility: inherit;" fill="rgb(0, 0, 0)" stroke="rgb(204, 204, 204)" stroke-width="1px"></line><line x1="51.5625" y1="116.71018695784834" x2="46.5625" y2="116.71018695784834" style="visibility: inherit;" fill="rgb(0, 0, 0)" stroke="rgb(204, 204, 204)" stroke-width="1px"></line><line x1="51.5625" y1="108.06681646724536" x2="46.5625" y2="108.06681646724536" style="visibility: inherit;" fill="rgb(0, 0, 0)" stroke="rgb(204, 204, 204)" stroke-width="1px"></line><line x1="51.5625" y1="101.36249745925133" x2="46.5625" y2="101.36249745925133" style="visibility: inherit;" fill="rgb(0, 0, 0)" stroke="rgb(204, 204, 204)" stroke-width="1px"></line><line x1="51.5625" y1="95.88466997294594" x2="46.5625" y2="95.88466997294594" style="visibility: inherit;" fill="rgb(0, 0, 0)" stroke="rgb(204, 204, 204)" stroke-width="1px"></line><line x1="51.5625" y1="91.25323282509018" x2="46.5625" y2="91.25323282509018" style="visibility: inherit;" fill="rgb(0, 0, 0)" stroke="rgb(204, 204, 204)" stroke-width="1px"></line><line x1="51.5625" y1="87.24129948234297" x2="46.5625" y2="87.24129948234297" style="visibility: inherit;" fill="rgb(0, 0, 0)" stroke="rgb(204, 204, 204)" stroke-width="1px"></line><line x1="51.5625" y1="83.70252347864654" x2="46.5625" y2="83.70252347864654" style="visibility: inherit;" fill="rgb(0, 0, 0)" stroke="rgb(204, 204, 204)" stroke-width="1px"></line><line x1="51.5625" y1="80.53698047434894" x2="46.5625" y2="80.53698047434894" style="visibility: inherit;" fill="rgb(0, 0, 0)" stroke="rgb(204, 204, 204)" stroke-width="1px"></line><line x1="51.5625" y1="59.71146348944657" x2="46.5625" y2="59.71146348944657" style="visibility: inherit;" fill="rgb(0, 0, 0)" stroke="rgb(204, 204, 204)" stroke-width="1px"></line><line x1="51.5625" y1="47.52931699514718" x2="46.5625" y2="47.52931699514718" style="visibility: inherit;" fill="rgb(0, 0, 0)" stroke="rgb(204, 204, 204)" stroke-width="1px"></line><line x1="51.5625" y1="38.88594650454421" x2="46.5625" y2="38.88594650454421" style="visibility: inherit;" fill="rgb(0, 0, 0)" stroke="rgb(204, 204, 204)" stroke-width="1px"></line><line x1="51.5625" y1="32.1816274965502" x2="46.5625" y2="32.1816274965502" style="visibility: inherit;" fill="rgb(0, 0, 0)" stroke="rgb(204, 204, 204)" stroke-width="1px"></line><line x1="51.5625" y1="26.70380001024481" x2="46.5625" y2="26.70380001024481" style="visibility: inherit;" fill="rgb(0, 0, 0)" stroke="rgb(204, 204, 204)" stroke-width="1px"></line><line x1="51.5625" y1="22.072362862389053" x2="46.5625" y2="22.072362862389053" style="visibility: inherit;" fill="rgb(0, 0, 0)" stroke="rgb(204, 204, 204)" stroke-width="1px"></line><line x1="51.5625" y1="18.06042951964184" x2="46.5625" y2="18.06042951964184" style="visibility: inherit;" fill="rgb(0, 0, 0)" stroke="rgb(204, 204, 204)" stroke-width="1px"></line><line x1="51.5625" y1="14.521653515945394" x2="46.5625" y2="14.521653515945394" style="visibility: inherit;" fill="rgb(0, 0, 0)" stroke="rgb(204, 204, 204)" stroke-width="1px"></line><line x1="51.5625" y1="11.356110511647792" x2="46.5625" y2="11.356110511647792" style="visibility: inherit;" fill="rgb(0, 0, 0)" stroke="rgb(204, 204, 204)" stroke-width="1px"></line></g><g transform="translate(41.5625, 0)"><text x="0" y="177.2476864299465" dx="0em" dy="0.3em" style="text-anchor: end; visibility: hidden; font-family: Roboto, sans-serif; font-size: 12px; font-weight: 200;" fill="rgb(50, 49, 63)" stroke="none" stroke-width="1px">0.04</text><text x="0" y="170.54336742195247" dx="0em" dy="0.3em" style="text-anchor: end; visibility: inherit; font-family: Roboto, sans-serif; font-size: 12px; font-weight: 200;" fill="rgb(50, 49, 63)" stroke="none" stroke-width="1px">0.05</text><text x="0" y="165.06553993564708" dx="0em" dy="0.3em" style="text-anchor: end; visibility: hidden; font-family: Roboto, sans-serif; font-size: 12px; font-weight: 200;" fill="rgb(50, 49, 63)" stroke="none" stroke-width="1px">0.06</text><text x="0" y="160.43410278779132" dx="0em" dy="0.3em" style="text-anchor: end; visibility: hidden; font-family: Roboto, sans-serif; font-size: 12px; font-weight: 200;" fill="rgb(50, 49, 63)" stroke="none" stroke-width="1px">0.07</text><text x="0" y="156.42216944504412" dx="0em" dy="0.3em" style="text-anchor: end; visibility: hidden; font-family: Roboto, sans-serif; font-size: 12px; font-weight: 200;" fill="rgb(50, 49, 63)" stroke="none" stroke-width="1px">0.08</text><text x="0" y="152.88339344134766" dx="0em" dy="0.3em" style="text-anchor: end; visibility: hidden; font-family: Roboto, sans-serif; font-size: 12px; font-weight: 200;" fill="rgb(50, 49, 63)" stroke="none" stroke-width="1px">0.09</text><text x="0" y="149.7178504370501" dx="0em" dy="0.3em" style="text-anchor: end; visibility: hidden; font-family: Roboto, sans-serif; font-size: 12px; font-weight: 200;" fill="rgb(50, 49, 63)" stroke="none" stroke-width="1px">0.1</text><text x="0" y="128.8923334521477" dx="0em" dy="0.3em" style="text-anchor: end; visibility: inherit; font-family: Roboto, sans-serif; font-size: 12px; font-weight: 200;" fill="rgb(50, 49, 63)" stroke="none" stroke-width="1px">0.2</text><text x="0" y="116.71018695784834" dx="0em" dy="0.3em" style="text-anchor: end; visibility: hidden; font-family: Roboto, sans-serif; font-size: 12px; font-weight: 200;" fill="rgb(50, 49, 63)" stroke="none" stroke-width="1px">0.3</text><text x="0" y="108.06681646724536" dx="0em" dy="0.3em" style="text-anchor: end; visibility: hidden; font-family: Roboto, sans-serif; font-size: 12px; font-weight: 200;" fill="rgb(50, 49, 63)" stroke="none" stroke-width="1px">0.4</text><text x="0" y="101.36249745925133" dx="0em" dy="0.3em" style="text-anchor: end; visibility: hidden; font-family: Roboto, sans-serif; font-size: 12px; font-weight: 200;" fill="rgb(50, 49, 63)" stroke="none" stroke-width="1px">0.5</text><text x="0" y="95.88466997294594" dx="0em" dy="0.3em" style="text-anchor: end; visibility: hidden; font-family: Roboto, sans-serif; font-size: 12px; font-weight: 200;" fill="rgb(50, 49, 63)" stroke="none" stroke-width="1px">0.6</text><text x="0" y="91.25323282509018" dx="0em" dy="0.3em" style="text-anchor: end; visibility: hidden; font-family: Roboto, sans-serif; font-size: 12px; font-weight: 200;" fill="rgb(50, 49, 63)" stroke="none" stroke-width="1px">0.7</text><text x="0" y="87.24129948234297" dx="0em" dy="0.3em" style="text-anchor: end; visibility: inherit; font-family: Roboto, sans-serif; font-size: 12px; font-weight: 200;" fill="rgb(50, 49, 63)" stroke="none" stroke-width="1px">0.8</text><text x="0" y="83.70252347864654" dx="0em" dy="0.3em" style="text-anchor: end; visibility: hidden; font-family: Roboto, sans-serif; font-size: 12px; font-weight: 200;" fill="rgb(50, 49, 63)" stroke="none" stroke-width="1px">0.9</text><text x="0" y="80.53698047434894" dx="0em" dy="0.3em" style="text-anchor: end; visibility: hidden; font-family: Roboto, sans-serif; font-size: 12px; font-weight: 200;" fill="rgb(50, 49, 63)" stroke="none" stroke-width="1px">1</text><text x="0" y="59.71146348944657" dx="0em" dy="0.3em" style="text-anchor: end; visibility: hidden; font-family: Roboto, sans-serif; font-size: 12px; font-weight: 200;" fill="rgb(50, 49, 63)" stroke="none" stroke-width="1px">2</text><text x="0" y="47.52931699514718" dx="0em" dy="0.3em" style="text-anchor: end; visibility: hidden; font-family: Roboto, sans-serif; font-size: 12px; font-weight: 200;" fill="rgb(50, 49, 63)" stroke="none" stroke-width="1px">3</text><text x="0" y="38.88594650454421" dx="0em" dy="0.3em" style="text-anchor: end; visibility: hidden; font-family: Roboto, sans-serif; font-size: 12px; font-weight: 200;" fill="rgb(50, 49, 63)" stroke="none" stroke-width="1px">4</text><text x="0" y="32.1816274965502" dx="0em" dy="0.3em" style="text-anchor: end; visibility: inherit; font-family: Roboto, sans-serif; font-size: 12px; font-weight: 200;" fill="rgb(50, 49, 63)" stroke="none" stroke-width="1px">5</text><text x="0" y="26.70380001024481" dx="0em" dy="0.3em" style="text-anchor: end; visibility: hidden; font-family: Roboto, sans-serif; font-size: 12px; font-weight: 200;" fill="rgb(50, 49, 63)" stroke="none" stroke-width="1px">6</text><text x="0" y="22.072362862389053" dx="0em" dy="0.3em" style="text-anchor: end; visibility: hidden; font-family: Roboto, sans-serif; font-size: 12px; font-weight: 200;" fill="rgb(50, 49, 63)" stroke="none" stroke-width="1px">7</text><text x="0" y="18.06042951964184" dx="0em" dy="0.3em" style="text-anchor: end; visibility: hidden; font-family: Roboto, sans-serif; font-size: 12px; font-weight: 200;" fill="rgb(50, 49, 63)" stroke="none" stroke-width="1px">8</text><text x="0" y="14.521653515945394" dx="0em" dy="0.3em" style="text-anchor: end; visibility: hidden; font-family: Roboto, sans-serif; font-size: 12px; font-weight: 200;" fill="rgb(50, 49, 63)" stroke="none" stroke-width="1px">9</text><text x="0" y="11.356110511647792" dx="0em" dy="0.3em" style="text-anchor: end; visibility: hidden; font-family: Roboto, sans-serif; font-size: 12px; font-weight: 200;" fill="rgb(50, 49, 63)" stroke="none" stroke-width="1px">10</text></g><line x1="51.5625" y1="0" x2="51.5625" y2="178" fill="rgb(0, 0, 0)" stroke="rgb(204, 204, 204)" stroke-width="1px"></line></g></g><g transform="translate(51, 0)" clip-path="url(#clip_0)"><clipPath id="clip_0"><rect width="278" height="178"></rect></clipPath><g><g><g><line x1="0" y1="0" x2="0" y2="178" fill="rgb(0, 0, 0)" stroke="rgb(60, 60, 60)" stroke-width="1px" opacity="0.25"></line><line x1="21.418269230769234" y1="0" x2="21.418269230769234" y2="178" fill="rgb(0, 0, 0)" stroke="rgb(60, 60, 60)" stroke-width="1px" opacity="0.25"></line><line x1="42.83653846153847" y1="0" x2="42.83653846153847" y2="178" fill="rgb(0, 0, 0)" stroke="rgb(60, 60, 60)" stroke-width="1px" opacity="0.25"></line><line x1="64.2548076923077" y1="0" x2="64.2548076923077" y2="178" fill="rgb(0, 0, 0)" stroke="rgb(60, 60, 60)" stroke-width="1px" opacity="0.25"></line><line x1="85.67307692307693" y1="0" x2="85.67307692307693" y2="178" fill="rgb(0, 0, 0)" stroke="rgb(60, 60, 60)" stroke-width="1px" opacity="0.25"></line><line x1="107.09134615384616" y1="0" x2="107.09134615384616" y2="178" fill="rgb(0, 0, 0)" stroke="rgb(60, 60, 60)" stroke-width="1px" opacity="0.25"></line><line x1="128.5096153846154" y1="0" x2="128.5096153846154" y2="178" fill="rgb(0, 0, 0)" stroke="rgb(60, 60, 60)" stroke-width="1px" opacity="0.25"></line><line x1="149.9278846153846" y1="0" x2="149.9278846153846" y2="178" fill="rgb(0, 0, 0)" stroke="rgb(60, 60, 60)" stroke-width="1px" opacity="0.25"></line><line x1="171.34615384615387" y1="0" x2="171.34615384615387" y2="178" fill="rgb(0, 0, 0)" stroke="rgb(60, 60, 60)" stroke-width="1px" opacity="0.25"></line><line x1="192.76442307692307" y1="0" x2="192.76442307692307" y2="178" fill="rgb(0, 0, 0)" stroke="rgb(60, 60, 60)" stroke-width="1px" opacity="0.25"></line><line x1="214.18269230769232" y1="0" x2="214.18269230769232" y2="178" fill="rgb(0, 0, 0)" stroke="rgb(60, 60, 60)" stroke-width="1px" opacity="0.25"></line><line x1="235.60096153846155" y1="0" x2="235.60096153846155" y2="178" fill="rgb(0, 0, 0)" stroke="rgb(60, 60, 60)" stroke-width="1px" opacity="0.25"></line><line x1="257.0192307692308" y1="0" x2="257.0192307692308" y2="178" fill="rgb(0, 0, 0)" stroke="rgb(60, 60, 60)" stroke-width="1px" opacity="0.25"></line><line x1="278.4375" y1="0" x2="278.4375" y2="178" fill="rgb(0, 0, 0)" stroke="rgb(60, 60, 60)" stroke-width="1px" opacity="0.25"></line></g><g><line x1="0" y1="177.2476864299465" x2="278.4375" y2="177.2476864299465" fill="rgb(0, 0, 0)" stroke="rgb(60, 60, 60)" stroke-width="1px" opacity="0.25"></line><line x1="0" y1="170.54336742195247" x2="278.4375" y2="170.54336742195247" fill="rgb(0, 0, 0)" stroke="rgb(60, 60, 60)" stroke-width="1px" opacity="0.25"></line><line x1="0" y1="165.06553993564708" x2="278.4375" y2="165.06553993564708" fill="rgb(0, 0, 0)" stroke="rgb(60, 60, 60)" stroke-width="1px" opacity="0.25"></line><line x1="0" y1="160.43410278779132" x2="278.4375" y2="160.43410278779132" fill="rgb(0, 0, 0)" stroke="rgb(60, 60, 60)" stroke-width="1px" opacity="0.25"></line><line x1="0" y1="156.42216944504412" x2="278.4375" y2="156.42216944504412" fill="rgb(0, 0, 0)" stroke="rgb(60, 60, 60)" stroke-width="1px" opacity="0.25"></line><line x1="0" y1="152.88339344134766" x2="278.4375" y2="152.88339344134766" fill="rgb(0, 0, 0)" stroke="rgb(60, 60, 60)" stroke-width="1px" opacity="0.25"></line><line x1="0" y1="149.7178504370501" x2="278.4375" y2="149.7178504370501" fill="rgb(0, 0, 0)" stroke="rgb(60, 60, 60)" stroke-width="1px" opacity="0.25"></line><line x1="0" y1="128.8923334521477" x2="278.4375" y2="128.8923334521477" fill="rgb(0, 0, 0)" stroke="rgb(60, 60, 60)" stroke-width="1px" opacity="0.25"></line><line x1="0" y1="116.71018695784834" x2="278.4375" y2="116.71018695784834" fill="rgb(0, 0, 0)" stroke="rgb(60, 60, 60)" stroke-width="1px" opacity="0.25"></line><line x1="0" y1="108.06681646724536" x2="278.4375" y2="108.06681646724536" fill="rgb(0, 0, 0)" stroke="rgb(60, 60, 60)" stroke-width="1px" opacity="0.25"></line><line x1="0" y1="101.36249745925133" x2="278.4375" y2="101.36249745925133" fill="rgb(0, 0, 0)" stroke="rgb(60, 60, 60)" stroke-width="1px" opacity="0.25"></line><line x1="0" y1="95.88466997294594" x2="278.4375" y2="95.88466997294594" fill="rgb(0, 0, 0)" stroke="rgb(60, 60, 60)" stroke-width="1px" opacity="0.25"></line><line x1="0" y1="91.25323282509018" x2="278.4375" y2="91.25323282509018" fill="rgb(0, 0, 0)" stroke="rgb(60, 60, 60)" stroke-width="1px" opacity="0.25"></line><line x1="0" y1="87.24129948234297" x2="278.4375" y2="87.24129948234297" fill="rgb(0, 0, 0)" stroke="rgb(60, 60, 60)" stroke-width="1px" opacity="0.25"></line><line x1="0" y1="83.70252347864654" x2="278.4375" y2="83.70252347864654" fill="rgb(0, 0, 0)" stroke="rgb(60, 60, 60)" stroke-width="1px" opacity="0.25"></line><line x1="0" y1="80.53698047434894" x2="278.4375" y2="80.53698047434894" fill="rgb(0, 0, 0)" stroke="rgb(60, 60, 60)" stroke-width="1px" opacity="0.25"></line><line x1="0" y1="59.71146348944657" x2="278.4375" y2="59.71146348944657" fill="rgb(0, 0, 0)" stroke="rgb(60, 60, 60)" stroke-width="1px" opacity="0.25"></line><line x1="0" y1="47.52931699514718" x2="278.4375" y2="47.52931699514718" fill="rgb(0, 0, 0)" stroke="rgb(60, 60, 60)" stroke-width="1px" opacity="0.25"></line><line x1="0" y1="38.88594650454421" x2="278.4375" y2="38.88594650454421" fill="rgb(0, 0, 0)" stroke="rgb(60, 60, 60)" stroke-width="1px" opacity="0.25"></line><line x1="0" y1="32.1816274965502" x2="278.4375" y2="32.1816274965502" fill="rgb(0, 0, 0)" stroke="rgb(60, 60, 60)" stroke-width="1px" opacity="0.25"></line><line x1="0" y1="26.70380001024481" x2="278.4375" y2="26.70380001024481" fill="rgb(0, 0, 0)" stroke="rgb(60, 60, 60)" stroke-width="1px" opacity="0.25"></line><line x1="0" y1="22.072362862389053" x2="278.4375" y2="22.072362862389053" fill="rgb(0, 0, 0)" stroke="rgb(60, 60, 60)" stroke-width="1px" opacity="0.25"></line><line x1="0" y1="18.06042951964184" x2="278.4375" y2="18.06042951964184" fill="rgb(0, 0, 0)" stroke="rgb(60, 60, 60)" stroke-width="1px" opacity="0.25"></line><line x1="0" y1="14.521653515945394" x2="278.4375" y2="14.521653515945394" fill="rgb(0, 0, 0)" stroke="rgb(60, 60, 60)" stroke-width="1px" opacity="0.25"></line><line x1="0" y1="11.356110511647792" x2="278.4375" y2="11.356110511647792" fill="rgb(0, 0, 0)" stroke="rgb(60, 60, 60)" stroke-width="1px" opacity="0.25"></line></g></g></g><g><g><line x1="21.418269230769234" y1="0" x2="21.418269230769234" y2="178" fill="rgb(0, 0, 0)" stroke="rgb(153, 153, 153)" stroke-width="1.5px"></line></g></g><g><g><g><g><g><path stroke="rgb(255, 112, 67)" stroke-width="2px" d="M21.418269230769234,6.161704620131159L22.489182692307693,6.393987314008029L23.560096153846157,8.135019134766575L24.631009615384617,10.104888547932463L25.701923076923077,15.892314751981967L26.77283653846154,16.35079716977298L27.84375,17.746675353626753L28.914663461538463,20.42422253643376L29.985576923076923,16.0302002443554L31.056490384615387,24.350262199756934L32.12740384615385,25.428571428571416L33.19831730769231,30.0208312925895L34.269230769230774,19.968826452264622L35.340144230769226,34.38046459823382L36.41105769230769,20.609455408682248L37.48197115384615,32.79046543659389L38.55288461538462,29.96291812587634L39.62379807692307,37.83602845016868L40.69471153846154,44.25516641104526L41.765625,41.21264383232713L42.83653846153847,32.68689628380336L43.90745192307692,31.94355829306493L44.97836538461539,31.405840706035114L46.04927884615385,37.383379782445246L47.120192307692314,38.52023710315507L48.19110576923077,32.141625867139396L49.26201923076923,38.77078178993095L50.33293269230769,44.82709594849845L51.40384615384615,46.47661833153974L52.47475961538461,45.85869028633031L53.54567307692308,48.12137220755493L54.61658653846154,38.45642099202604L55.6875,54.459425221001986L56.75841346153846,55.29054627902586L57.82932692307693,68.19083078437193L58.90024038461539,54.910595628289464L59.97115384615385,57.99820761500828L61.04206730769231,52.55211631820013L62.112980769230774,53.99528229533648L63.18389423076923,61.192214136145296L64.2548076923077,61.161266018946456L65.32572115384616,65.37982974210207L66.39663461538461,54.53287869365661L67.46754807692308,50.21362262505526L68.53846153846155,57.51092321152483L69.609375,68.98295039639984L70.68028846153845,57.05024554924166L71.75120192307692,62.664136990440916L72.82211538461539,58.34026109740991L73.89302884615384,77.50406446079084L74.9639423076923,60.61407429839373L76.03485576923076,60.3109484137615L77.10576923076924,62.165655717126555L78.1766826923077,73.38091574075247L79.24759615384615,63.32451299857864L80.31850961538461,57.62745294707444L81.38942307692308,72.26334983452861L82.46033653846153,66.39123778236056L83.53125,65.59117216876723L84.60216346153845,75.90846095967743L85.67307692307693,77.00078335321172L86.74399038461539,68.40102949255088L87.81490384615384,75.00540683298586L88.8858173076923,80.93886094139275L89.95673076923077,67.49680341823874L91.02764423076923,73.97786425653794L92.0985576923077,80.00434593634229L93.16947115384615,72.1023183258193L94.24038461538463,74.07468868204084L95.31129807692308,94.5845416748084L96.38221153846153,67.83689357438931L97.453125,67.69279477397514L98.52403846153847,93.30962212625087L99.59495192307692,59.63522864141161L100.66586538461539,79.02431735894477L101.73677884615384,67.16756538219667L102.8076923076923,77.97904700747706L103.87860576923077,80.23851728144113L104.94951923076923,79.48999548072841L106.0204326923077,83.688972860038L107.09134615384616,74.18596799218193L108.16225961538461,85.64581378490675L109.23317307692308,79.31545206579177L110.30408653846153,85.12288041426608L111.375,71.56364181454197L112.44591346153847,77.06024177519353L113.51682692307692,81.37723068854014L114.58774038461537,76.53975375944925L115.65865384615385,101.77574152848506L116.7295673076923,95.01750720843754L117.80048076923077,101.30473838067223L118.87139423076923,91.55824767063478L119.9423076923077,88.33630482689972L121.01322115384616,95.04727074893218L122.08413461538461,93.94711620763957L123.15504807692307,91.51303128484493L124.22596153846155,93.99394001827794L125.296875,99.15158347984132L126.36778846153847,74.90320425453157L127.43870192307692,102.79422610148407L128.5096153846154,85.45630176925546L129.58052884615384,89.38853515323952L130.65144230769232,91.40295452468L131.72235576923077,103.55524112831608L132.79326923076923,83.11637938775733L133.8641826923077,91.76283447144658L134.93509615384616,93.47851998383639L136.0060096153846,134.91445372800518L137.0769230769231,114.21720709236345L138.14783653846155,77.27747406651058L139.21875,86.14047896352275L140.28966346153845,80.94894819317601L141.3605769230769,80.04485226364753L142.4314903846154,100.47449485363217L143.50240384615384,109.73025230765764L144.57331730769232,127.79142877206606L145.64423076923077,92.20027566981435L146.71514423076923,110.90740781341017L147.78605769230768,92.96254628188396L148.85697115384616,83.57511376176946L149.9278846153846,107.22421541885352L150.99879807692307,105.24126874769722L152.06971153846152,99.73096328097563L153.140625,93.1939680609653L154.21153846153848,99.57104146335804L155.28245192307693,89.69488931304154L156.3533653846154,125.94161664734906L157.42427884615384,106.65686575884367L158.4951923076923,111.32560773965209L159.56610576923075,133.2923066929936L160.63701923076923,94.98441579513663L161.7079326923077,82.20194759529082L162.77884615384616,106.8751312990537L163.8497596153846,103.19539197204556L164.92067307692307,111.81108362147265L165.99158653846155,109.82253098402116L167.0625,108.255773478244L168.13341346153845,94.77259264086297L169.2043269230769,108.15252562378751L170.2752403846154,114.52225614267046L171.34615384615387,128.2100422660755L172.41706730769232,104.21530513859486L173.48798076923077,109.69210905794648L174.55889423076923,109.31563823828014L175.62980769230768,112.15664416075528L176.70072115384613,111.59297251464612L177.7716346153846,97.05510915884292L178.8425480769231,96.52838574553887L179.91346153846155,106.22984176376447L180.984375,155.51455757750747L182.05528846153845,96.50336424162975L183.12620192307693,116.16048691890134L184.1971153846154,110.1936773377697L185.26802884615384,139.6306239633084L186.3389423076923,103.67465672781856L187.40985576923077,99.59741653290025L188.48076923076925,86.0350287535681L189.5516826923077,100.12759802554577L190.62259615384616,118.8805542052261L191.6935096153846,95.3155640510818L192.76442307692307,105.1001955531401L193.83533653846152,116.56953666195827L194.90625,101.17005817821085L195.97716346153848,124.82225535141335L197.04807692307693,117.33345175708857L198.1189903846154,126.5730888665259L199.18990384615384,124.4130754198073L200.26081730769232,139.55713107220896L201.33173076923077,107.09277703824976L202.40264423076923,123.8837334741447L203.47355769230768,134.13189932115634L204.54447115384616,116.04321454693446L205.6153846153846,143.47406226157102L206.6862980769231,95.1287191102699L207.75721153846155,127.7809255710523L208.828125,125.8956556735238L209.89903846153845,121.62050879902796L210.9699519230769,112.64438456189058L212.0408653846154,108.0588076722958L213.11177884615384,150.36064913852678L214.18269230769232,163.93943345145198L215.25360576923077,132.38677097045198L216.32451923076923,158.86251748772486L217.39543269230768,108.3351373453379L218.46634615384616,115.01199531764284L219.5372596153846,140.40515916152594L220.60817307692307,139.60022757464893L221.67908653846152,113.3081226334222L222.75,110.73063367315267L223.82091346153848,126.4239756938602L224.89182692307693,124.98561939644087L225.9627403846154,134.15641668671694L227.03365384615384,117.41003836275101L228.1045673076923,122.91667575667857L229.17548076923075,104.70769250878499L230.24639423076923,142.1996034917133L231.3173076923077,152.57142857142856L232.38822115384616,149.70052885985996L233.4591346153846,140.5014663131137L234.53004807692307,172.73949451975963L235.60096153846155,151.16878247573482L236.671875,141.09262592126316L237.74278846153845,133.14278347841923L238.8137019230769,195.33835482881884L239.8846153846154,99.57068378846229L240.95552884615387,133.76674865111116L242.02644230769232,187.90625949571486L243.09735576923077,180.4316295109026L244.16826923076923,123.52658158336345L245.23918269230768,116.8535416091751L246.31009615384613,110.64125350598269L247.3810096153846,167.55039546374235L248.4519230769231,135.31737104221622L249.52283653846155,121.21714002846198L250.59375,112.92993377190356L251.66466346153845,129.5860044038853L252.73557692307693,120.12578909948812L253.8064903846154,170.3197673404536L254.87740384615384,139.42326869965618L255.9483173076923,170.0293639765712L257.0192307692308,109.15020441790016L258.0901442307692,144.1690960429791L259.1610576923077,118.57039336170905L260.23197115384613,97.62600222891295L261.30288461538464,118.74674353363933L262.3737980769231,106.422150943578L263.44471153846155,158.80127180198608L264.515625,174.68771118834908L265.58653846153845,143.80920740409096L266.65745192307696,124.22060686659576L267.7283653846154,150.8817634068351" style="fill: none;" fill="none"></path></g></g></g></g></g></g><g transform="translate(51, 178)" clip-path="url(#clip_1)"><clipPath id="clip_1"><rect width="278" height="22"></rect></clipPath><g><g><line x1="0" y1="0" x2="0" y2="5" style="visibility: inherit;" fill="rgb(0, 0, 0)" stroke="rgb(204, 204, 204)" stroke-width="1px"></line><line x1="21.418269230769234" y1="0" x2="21.418269230769234" y2="5" style="visibility: inherit;" fill="rgb(0, 0, 0)" stroke="rgb(204, 204, 204)" stroke-width="1px"></line><line x1="42.83653846153847" y1="0" x2="42.83653846153847" y2="5" style="visibility: inherit;" fill="rgb(0, 0, 0)" stroke="rgb(204, 204, 204)" stroke-width="1px"></line><line x1="64.2548076923077" y1="0" x2="64.2548076923077" y2="5" style="visibility: inherit;" fill="rgb(0, 0, 0)" stroke="rgb(204, 204, 204)" stroke-width="1px"></line><line x1="85.67307692307693" y1="0" x2="85.67307692307693" y2="5" style="visibility: inherit;" fill="rgb(0, 0, 0)" stroke="rgb(204, 204, 204)" stroke-width="1px"></line><line x1="107.09134615384616" y1="0" x2="107.09134615384616" y2="5" style="visibility: inherit;" fill="rgb(0, 0, 0)" stroke="rgb(204, 204, 204)" stroke-width="1px"></line><line x1="128.5096153846154" y1="0" x2="128.5096153846154" y2="5" style="visibility: inherit;" fill="rgb(0, 0, 0)" stroke="rgb(204, 204, 204)" stroke-width="1px"></line><line x1="149.9278846153846" y1="0" x2="149.9278846153846" y2="5" style="visibility: inherit;" fill="rgb(0, 0, 0)" stroke="rgb(204, 204, 204)" stroke-width="1px"></line><line x1="171.34615384615387" y1="0" x2="171.34615384615387" y2="5" style="visibility: inherit;" fill="rgb(0, 0, 0)" stroke="rgb(204, 204, 204)" stroke-width="1px"></line><line x1="192.76442307692307" y1="0" x2="192.76442307692307" y2="5" style="visibility: inherit;" fill="rgb(0, 0, 0)" stroke="rgb(204, 204, 204)" stroke-width="1px"></line><line x1="214.18269230769232" y1="0" x2="214.18269230769232" y2="5" style="visibility: inherit;" fill="rgb(0, 0, 0)" stroke="rgb(204, 204, 204)" stroke-width="1px"></line><line x1="235.60096153846155" y1="0" x2="235.60096153846155" y2="5" style="visibility: inherit;" fill="rgb(0, 0, 0)" stroke="rgb(204, 204, 204)" stroke-width="1px"></line><line x1="257.0192307692308" y1="0" x2="257.0192307692308" y2="5" style="visibility: inherit;" fill="rgb(0, 0, 0)" stroke="rgb(204, 204, 204)" stroke-width="1px"></line><line x1="278.4375" y1="0" x2="278.4375" y2="5" style="visibility: inherit;" fill="rgb(0, 0, 0)" stroke="rgb(204, 204, 204)" stroke-width="1px"></line></g><g transform="translate(0, 8)"><text x="0" y="0" dx="0em" dy="0.95em" style="text-anchor: middle; visibility: hidden; font-family: Roboto, sans-serif; font-size: 12px; font-weight: 200;" fill="rgb(50, 49, 63)" stroke="none" stroke-width="1px">-200</text><text x="21.418269230769234" y="0" dx="0em" dy="0.95em" style="text-anchor: middle; visibility: inherit; font-family: Roboto, sans-serif; font-size: 12px; font-weight: 200;" fill="rgb(50, 49, 63)" stroke="none" stroke-width="1px">0</text><text x="42.83653846153847" y="0" dx="0em" dy="0.95em" style="text-anchor: middle; visibility: hidden; font-family: Roboto, sans-serif; font-size: 12px; font-weight: 200;" fill="rgb(50, 49, 63)" stroke="none" stroke-width="1px">200</text><text x="64.2548076923077" y="0" dx="0em" dy="0.95em" style="text-anchor: middle; visibility: inherit; font-family: Roboto, sans-serif; font-size: 12px; font-weight: 200;" fill="rgb(50, 49, 63)" stroke="none" stroke-width="1px">400</text><text x="85.67307692307693" y="0" dx="0em" dy="0.95em" style="text-anchor: middle; visibility: hidden; font-family: Roboto, sans-serif; font-size: 12px; font-weight: 200;" fill="rgb(50, 49, 63)" stroke="none" stroke-width="1px">600</text><text x="107.09134615384616" y="0" dx="0em" dy="0.95em" style="text-anchor: middle; visibility: inherit; font-family: Roboto, sans-serif; font-size: 12px; font-weight: 200;" fill="rgb(50, 49, 63)" stroke="none" stroke-width="1px">800</text><text x="128.5096153846154" y="0" dx="0em" dy="0.95em" style="text-anchor: middle; visibility: hidden; font-family: Roboto, sans-serif; font-size: 12px; font-weight: 200;" fill="rgb(50, 49, 63)" stroke="none" stroke-width="1px">1k</text><text x="149.9278846153846" y="0" dx="0em" dy="0.95em" style="text-anchor: middle; visibility: inherit; font-family: Roboto, sans-serif; font-size: 12px; font-weight: 200;" fill="rgb(50, 49, 63)" stroke="none" stroke-width="1px">1.2k</text><text x="171.34615384615387" y="0" dx="0em" dy="0.95em" style="text-anchor: middle; visibility: hidden; font-family: Roboto, sans-serif; font-size: 12px; font-weight: 200;" fill="rgb(50, 49, 63)" stroke="none" stroke-width="1px">1.4k</text><text x="192.76442307692307" y="0" dx="0em" dy="0.95em" style="text-anchor: middle; visibility: inherit; font-family: Roboto, sans-serif; font-size: 12px; font-weight: 200;" fill="rgb(50, 49, 63)" stroke="none" stroke-width="1px">1.6k</text><text x="214.18269230769232" y="0" dx="0em" dy="0.95em" style="text-anchor: middle; visibility: hidden; font-family: Roboto, sans-serif; font-size: 12px; font-weight: 200;" fill="rgb(50, 49, 63)" stroke="none" stroke-width="1px">1.8k</text><text x="235.60096153846155" y="0" dx="0em" dy="0.95em" style="text-anchor: middle; visibility: inherit; font-family: Roboto, sans-serif; font-size: 12px; font-weight: 200;" fill="rgb(50, 49, 63)" stroke="none" stroke-width="1px">2k</text><text x="257.0192307692308" y="0" dx="0em" dy="0.95em" style="text-anchor: middle; visibility: hidden; font-family: Roboto, sans-serif; font-size: 12px; font-weight: 200;" fill="rgb(50, 49, 63)" stroke="none" stroke-width="1px">2.2k</text><text x="278.4375" y="0" dx="0em" dy="0.95em" style="text-anchor: middle; visibility: hidden; font-family: Roboto, sans-serif; font-size: 12px; font-weight: 200;" fill="rgb(50, 49, 63)" stroke="none" stroke-width="1px">2.4k</text></g><line x1="0" y1="0" x2="278.4375" y2="0" fill="rgb(0, 0, 0)" stroke="rgb(204, 204, 204)" stroke-width="1px"></line></g></g></g></g></svg>